# xmcd
#
# Track frame offsets: 
#        150
#        62975
#        76151
#        105772
#        124946
#        142406
#
# Disc length: 2461 seconds
#
# Revision: 0
# Processed by: cddbd v1.5.2PL0 Copyright (c) Steve Scherf et al.
# Submitted via: ExactAudioCopy v0.99pb5
#
DISCID=4f099b06
DTITLE=송암스님 - 송암스님 범패 시리즈 16
DYEAR=1900
DGENRE=범패
TTITLE0=중단유치 - 안채비 - 소암스님
TTITLE1=헌좌게 - 홋소리 - 송암스님
TTITLE2=모란찬 - 홋소리(나비무) - 송암스님
TTITLE3=근백 - 안채비 - 송암스님
TTITLE4=재백 - 안채비 - 송암스님
TTITLE5=욕건이 다게 - 홋소리 나비무 - 송암스님
EXTD=
EXTT0=
EXTT1=
EXTT2=
EXTT3=
EXTT4=
EXTT5=
PLAYORDER=
